<svg xmlns="http://www.w3.org/2000/svg" width="88" height="54" viewBox="0 0 88 54" role="img" aria-label="Visa">
  <rect width="88" height="54" rx="8" fill="#fff"/>
  <rect x="1" y="1" width="86" height="52" rx="7" fill="none" stroke="#d7e5f6"/>
  <path fill="#1434CB" d="M33.5 36.3h-5.4l3.3-20.5h5.4l-3.3 20.5Zm19.2-20c-1.1-.4-2.8-.8-4.9-.8-5.3 0-9.1 2.7-9.1 6.6 0 2.8 2.7 4.4 4.7 5.4 2.1.9 2.8 1.5 2.8 2.4 0 1.3-1.7 1.9-3.2 1.9-2.2 0-3.4-.3-5.2-1.1l-.7-.3-.8 4.5c1.3.6 3.7 1.1 6.1 1.1 5.7 0 9.4-2.7 9.5-6.8 0-2.2-1.4-4-4.6-5.4-1.9-.9-3.1-1.4-3.1-2.3 0-.8 1-1.7 3.1-1.7 1.8 0 3.1.4 4.1.7l.5.2.8-4.4Zm13.9-.5h-4.2c-1.3 0-2.2.4-2.9 1.7l-8.1 18.8h5.7l1.1-2.9h7l.7 2.9h5L66.6 15.8Zm-6.7 13.6 2.2-5.5.7-1.9.4 1.7 1.3 5.7h-4.6ZM23.4 15.8l-5.2 14-.6-3c-1-3.2-4-6.6-7.3-8.3l4.8 17.8h5.7l8.4-20.5h-5.8Z"/>
  <path fill="#F7B600" d="M13.4 15.8H4.8l-.1.5c6.7 1.7 11.2 5.7 12.9 10.5l-1.9-9.4c-.3-1.3-1.2-1.5-2.3-1.6Z"/>
</svg>
